<svg width="192" height="192" viewBox="0 0 192 192" fill="none" xmlns="http://www.w3.org/2000/svg">
<path fill-rule="evenodd" clip-rule="evenodd" d="M177 96C177 140.183 141.183 176 97 176C96.8226 176 96.6453 175.999 96.4682 175.998C131.047 175.743 159 147.188 159 112C159 79.4919 135.142 52.6446 104.243 48.5428C101.881 48.1853 99.4619 48 97 48C96.8438 48 96.6878 48.0007 96.532 48.0022C96.3548 48.0007 96.1775 48 96 48C61.2061 48 33 76.6538 33 112C33 144.83 57.3331 171.886 88.6771 175.572C48.4054 171.409 17 137.372 17 96C17 51.8172 52.8172 16 97 16C141.183 16 177 51.8172 177 96Z" fill="url(#paint0_linear)"/>
<path fill-rule="evenodd" clip-rule="evenodd" d="M177 96C177 140.183 141.183 176 97 176C96.8226 176 96.6453 175.999 96.4682 175.998C131.047 175.743 159 147.188 159 112C159 79.4919 135.142 52.6446 104.243 48.5428C101.881 48.1853 99.4619 48 97 48C96.8438 48 96.6878 48.0007 96.532 48.0022C96.3548 48.0007 96.1775 48 96 48C61.2061 48 33 76.6538 33 112C33 144.83 57.3331 171.886 88.6771 175.572C48.4054 171.409 17 137.372 17 96C17 51.8172 52.8172 16 97 16C141.183 16 177 51.8172 177 96Z" fill="url(#paint1_linear)"/>
<mask id="mask0" mask-type="alpha" maskUnits="userSpaceOnUse" x="33" y="48" width="126" height="128">
<ellipse cx="96" cy="112" rx="63" ry="64" fill="#C4C4C4"/>
</mask>
<g mask="url(#mask0)">
<path fill-rule="evenodd" clip-rule="evenodd" d="M96 176C140.183 176 176 140.183 176 96C176 51.8172 140.183 16 96 16C51.8172 16 16 51.8172 16 96C16 140.183 51.8172 176 96 176ZM96 144C122.51 144 144 122.51 144 96C144 69.4903 122.51 48 96 48C69.4903 48 48 69.4903 48 96C48 122.51 69.4903 144 96 144Z" fill="url(#paint2_linear)"/>
</g>
<defs>
<linearGradient id="paint0_linear" x1="69.5" y1="76" x2="168.5" y2="132.5" gradientUnits="userSpaceOnUse">
<stop stop-color="#025C5E"/>
<stop offset="1" stop-color="#B1CDAC"/>
</linearGradient>
<linearGradient id="paint1_linear" x1="61" y1="159.5" x2="72.5" y2="144.5" gradientUnits="userSpaceOnUse">
<stop stop-color="#025C5E"/>
<stop offset="1" stop-color="#025C5E" stop-opacity="0"/>
</linearGradient>
<linearGradient id="paint2_linear" x1="179" y1="77.5" x2="113" y2="60" gradientUnits="userSpaceOnUse">
<stop stop-color="#023347"/>
<stop offset="1" stop-color="#025C5E"/>
</linearGradient>
</defs>
</svg>
