<svg width="192" height="192" viewBox="0 0 192 192" fill="none" xmlns="http://www.w3.org/2000/svg">
<path fill-rule="evenodd" clip-rule="evenodd" d="M96 176C51.8172 176 16 140.183 16 96C16 51.8172 51.8172 16 96 16C140.183 16 176 51.8172 176 96C176 117.005 167.904 136.12 154.663 150.394C160.243 139.87 163 127.9 163 116C163 99.1646 157.481 82.1897 146.26 69.366C134.971 56.464 118.108 48 96 48C69.4903 48 48 69.4903 48 96C48 122.51 69.4903 144 96 144C122.51 144 144 122.51 144 96C144 87.0687 141.561 78.7071 137.312 71.5451C138.333 72.5397 139.309 73.5705 140.24 74.634C150.019 85.8103 155 100.835 155 116C155 131.165 150.019 146.19 140.24 157.366C130.529 168.464 115.892 176 96 176Z" fill="#023347"/>
</svg>
